<svg enable-background="new 0 0 60 59" height="512" viewBox="0 0 60 59" width="512" xmlns="http://www.w3.org/2000/svg"><path d="m51.569 35h-4.138c-.789 0-1.431-.642-1.431-1.431v-14.138c0-.789.642-1.431 1.431-1.431h4.138c.789 0 1.431.642 1.431 1.431v14.138c0 .789-.642 1.431-1.431 1.431zm-3.569-2h3v-13h-3z"/><path d="m42.569 35h-4.138c-.789 0-1.431-.642-1.431-1.431v-6.138c0-.789.642-1.431 1.431-1.431h4.138c.789 0 1.431.642 1.431 1.431v6.138c0 .789-.642 1.431-1.431 1.431zm-3.569-2h3v-5h-3z"/><path d="m24.569 35h-4.138c-.789 0-1.431-.642-1.431-1.431v-3.138c0-.789.642-1.431 1.431-1.431h4.138c.789 0 1.431.642 1.431 1.431v3.138c0 .789-.642 1.431-1.431 1.431zm-3.569-2h3v-2h-3z"/><path d="m33.569 35h-4.138c-.789 0-1.431-.642-1.431-1.431v-10.138c0-.789.642-1.431 1.431-1.431h4.138c.789 0 1.431.642 1.431 1.431v10.138c0 .789-.642 1.431-1.431 1.431zm-3.569-2h3v-9h-3z"/><path d="m20 26c-.256 0-.512-.098-.707-.293-.391-.391-.391-1.023 0-1.414l11-11c.337-.337.865-.389 1.262-.125l8.246 5.497 8.426-10.298c.35-.429.98-.49 1.407-.141.427.35.49.979.141 1.407l-9 11c-.326.399-.9.484-1.329.199l-8.318-5.545-10.42 10.42c-.196.195-.452.293-.708.293z"/><path d="m49 10h-5c-.552 0-1-.448-1-1s.448-1 1-1h5c.552 0 1 .448 1 1s-.448 1-1 1z"/><path d="m49 15c-.552 0-1-.448-1-1v-5c0-.552.448-1 1-1s1 .448 1 1v5c0 .552-.448 1-1 1z"/><path d="m15 31h-8c-.552 0-1-.448-1-1s.448-1 1-1h8c.552 0 1 .448 1 1s-.448 1-1 1z"/><path d="m11 35h-4c-.552 0-1-.448-1-1s.448-1 1-1h4c.552 0 1 .448 1 1s-.448 1-1 1z"/><path d="m15 21h-8c-.552 0-1-.448-1-1s.448-1 1-1h8c.552 0 1 .448 1 1s-.448 1-1 1z"/><path d="m11 25h-4c-.552 0-1-.448-1-1s.448-1 1-1h4c.552 0 1 .448 1 1s-.448 1-1 1z"/><path d="m15 11h-8c-.552 0-1-.448-1-1s.448-1 1-1h8c.552 0 1 .448 1 1s-.448 1-1 1z"/><path d="m11 15h-4c-.552 0-1-.448-1-1s.448-1 1-1h4c.552 0 1 .448 1 1s-.448 1-1 1z"/><path d="m38 6h-16c-.552 0-1-.448-1-1v-4c0-.552.448-1 1-1h16c.552 0 1 .448 1 1v4c0 .552-.448 1-1 1zm-15-2h14v-2h-14z"/><path d="m40 44h-20c-.552 0-1-.448-1-1v-4c0-.552.448-1 1-1h20c.552 0 1 .448 1 1v4c0 .552-.448 1-1 1zm-19-2h18v-2h-18z"/><path d="m59 42h-19c-.552 0-1-.448-1-1v-1h-18v1c0 .552-.448 1-1 1h-19c-.552 0-1-.448-1-1v-38c0-.552.448-1 1-1h21c.552 0 1 .448 1 1v1h14v-1c0-.552.448-1 1-1h21c.552 0 1 .448 1 1v38c0 .552-.448 1-1 1zm-18-2h17v-36h-19v1c0 .552-.448 1-1 1h-16c-.552 0-1-.448-1-1v-1h-19v36h17v-1c0-.552.448-1 1-1h20c.552 0 1 .448 1 1z"/><path d="m30 51c-.552 0-1-.448-1-1v-7c0-.552.448-1 1-1s1 .448 1 1v7c0 .552-.448 1-1 1z"/><path d="m30 59c-2.757 0-5-2.243-5-5s2.243-5 5-5 5 2.243 5 5-2.243 5-5 5zm0-8c-1.654 0-3 1.346-3 3s1.346 3 3 3 3-1.346 3-3-1.346-3-3-3z"/></svg>