<svg id="Layer_1" data-name="Layer 1" xmlns="http://www.w3.org/2000/svg" viewBox="0 0 127.077 133.12"><defs><style>.cls-1{fill:none;stroke:#43494a;stroke-width:2px;}</style></defs><title>profile</title><path id="Path_155" data-name="Path 155" class="cls-1" d="M119.792,140.544c-5.035-1.8-13.257-1.887-16.9-3.282a23.866,23.866,0,0,1-7.82-3.64c-1.3-1.59-1.3-12.808-1.3-12.808a20.679,20.679,0,0,0,4.451-6.29,69.989,69.989,0,0,0,2.158-12.359s2.964,1.26,4.132-4.673c.99-5.122,2.878-7.82,2.385-11.595s-2.607-2.877-2.607-2.877S106.9,79.2,106.9,66.21c0-13.391-10.114-26.56-29.033-26.56S48.788,52.862,48.788,66.21c0,12.987,2.563,16.81,2.563,16.81s-2.114-.9-2.607,2.877,1.347,6.473,2.384,11.6c1.169,5.961,4.133,4.673,4.133,4.673a70.542,70.542,0,0,0,2.158,12.359,20.662,20.662,0,0,0,4.451,6.29s0,11.234-1.3,12.808a22.962,22.962,0,0,1-7.82,3.576c-3.577,1.395-11.818,1.59-16.9,3.37a31.716,31.716,0,0,0-20.584,30.2H140.332A31.655,31.655,0,0,0,119.792,140.544Z" transform="translate(-14.261 -38.65)"/></svg>