<svg id="Layer_1" data-name="Layer 1" xmlns="http://www.w3.org/2000/svg" viewBox="0 0 82.25 199.325"><defs><style>.cls-1{fill:none;stroke:#43494a;stroke-width:2px;}</style></defs><title>tie</title><g id="Group_170" data-name="Group 170"><g id="Group_169" data-name="Group 169"><path id="Path_160" data-name="Path 160" class="cls-1" d="M83.22,217.8s-19.149-15-27.635-22.214a5.649,5.649,0,0,1-2.3-5.853c3.546-23.757,6.931-47.543,10.371-71.316,2.453-16.978,4.967-33.95,7.3-50.944.415-2.991,1.269-4.546,4.692-4.327,4.692.3,9.418.141,14.126.051,2.245-.045,3.132.859,3.446,3.047q7.621,53.228,15.356,106.438c.836,5.787,1.537,11.6,2.621,17.342a4.834,4.834,0,0,1-1.981,5.209c-8.593,7.346-17.09,14.811-26.008,22.573.96.207-.747.2,0,0Z" transform="translate(-41.083 -19.629)"/><path id="Path_161" data-name="Path 161" class="cls-1" d="M122.254,20.652a11.153,11.153,0,0,1-.287,4.164c-4.422,8.722-9.019,17.359-13.582,26.008-1.93,3.659-2.688,3.788-5.4.741C97.222,45.111,91.526,38.6,85.807,32.1c-2.806-3.2-2.52-4.3,1.684-5.107,10.1-1.942,20.2-3.766,30.334-5.663a17.709,17.709,0,0,0,2.145-.684Z" transform="translate(-41.083 -19.629)"/><path id="Path_162" data-name="Path 162" class="cls-1" d="M45.056,20.652l26.378,5.321q3.368.678,6.735,1.347c2.559.5,2.918,1.913,1.324,3.743Q70.1,41.862,60.58,52.547c-1.51,1.684-2.862,1.381-3.878-.561-4.866-9.21-9.771-18.4-14.48-27.686-.455-.9.331-2.43.561-3.665Z" transform="translate(-41.083 -19.629)"/><path id="Path_163" data-name="Path 163" class="cls-1" d="M82.17,59.54H79.5c-9.373-.157-7.066,1.313-10.4-7.52a4.815,4.815,0,0,1,1.06-5.809c3.014-3.1,5.753-6.466,8.626-9.7s4.125-3.121,7.022.146,5.612,6.6,8.609,9.715A4.489,4.489,0,0,1,95.483,51.8c-3.643,9.277-.937,7.532-11.017,7.739C83.7,59.551,82.934,59.54,82.17,59.54Z" transform="translate(-41.083 -19.629)"/></g></g></svg>